<?xml version="1.0" encoding="UTF-8"?>
<svg id="Layer_1" data-name="Layer 1" xmlns="http://www.w3.org/2000/svg" viewBox="0 0 500.5 366.75">
  <defs>
    <style>
      .cls-1 {
        fill: #231f20;
        stroke: #231f20;
        stroke-miterlimit: 10;
        stroke-width: 10px;
      }
    </style>
  </defs>
  <polygon class="cls-1" points="365 70.75 365 5.75 70 5.75 5 5.75 5 361.75 70 361.75 70 167.75 201.5 167.75 201.5 102.75 70 102.75 70 70.75 365 70.75"/>
  <polygon class="cls-1" points="462 296.75 462 5 397 5 397 361.75 430.5 361.75 462 361.75 495.5 361.75 495.5 296.75 462 296.75"/>
  <polygon class="cls-1" points="233.5 102.75 233.5 167.75 300 167.75 300 199.75 102 199.75 102 215.17 102 264.75 102 296.75 102 346.67 102 361.75 365 361.75 365 296.75 167 296.75 167 264.75 365 264.75 365 199.75 365 167.75 365 167.25 365 102.75 233.5 102.75"/>
</svg>